<svg xmlns="http://www.w3.org/2000/svg" viewBox="0 0 600 450" width="600" height="450" role="img" aria-label="Pile of dark screened composted cattle manure ready for field spreading">
  <rect width="600" height="450" fill="#eef2ee"/>
  <rect y="300" width="600" height="150" fill="#d8e0d6"/>
  <!-- pile -->
  <path d="M120 360c20-90 70-150 180-150s160 60 180 150Z" fill="#4a3a2a"/>
  <path d="M150 360c18-66 60-110 150-110s132 44 150 110Z" fill="#5a4632"/>
  <!-- texture clumps -->
  <g fill="#3a2e20">
    <circle cx="230" cy="320" r="10"/><circle cx="300" cy="300" r="13"/>
    <circle cx="360" cy="325" r="9"/><circle cx="270" cy="345" r="8"/>
    <circle cx="330" cy="340" r="11"/><circle cx="400" cy="345" r="9"/>
    <circle cx="200" cy="345" r="8"/>
  </g>
  <g fill="#6b543c">
    <circle cx="255" cy="290" r="6"/><circle cx="320" cy="285" r="7"/>
    <circle cx="285" cy="315" r="5"/>
  </g>
</svg>
