<svg xmlns="http://www.w3.org/2000/svg" viewBox="0 0 600 450" width="600" height="450" role="img" aria-label="Close-up of brown pelletized poultry litter organic fertilizer">
  <rect width="600" height="450" fill="#efeae2"/>
  <!-- scattered pellets -->
  <g fill="#7a5a32">
    <g>
      <rect x="120" y="150" width="40" height="16" rx="8" transform="rotate(20 140 158)"/>
      <rect x="220" y="120" width="44" height="16" rx="8" transform="rotate(-15 242 128)"/>
      <rect x="330" y="160" width="42" height="16" rx="8" transform="rotate(35 351 168)"/>
      <rect x="430" y="130" width="40" height="16" rx="8" transform="rotate(-25 450 138)"/>
      <rect x="170" y="240" width="46" height="16" rx="8" transform="rotate(-10 193 248)"/>
      <rect x="290" y="250" width="42" height="16" rx="8" transform="rotate(15 311 258)"/>
      <rect x="400" y="240" width="44" height="16" rx="8" transform="rotate(-30 422 248)"/>
      <rect x="140" y="330" width="42" height="16" rx="8" transform="rotate(25 161 338)"/>
      <rect x="250" y="340" width="46" height="16" rx="8" transform="rotate(-18 273 348)"/>
      <rect x="360" y="330" width="40" height="16" rx="8" transform="rotate(28 380 338)"/>
      <rect x="450" y="320" width="44" height="16" rx="8" transform="rotate(-12 472 328)"/>
    </g>
  </g>
  <g fill="#9a7444">
    <rect x="200" y="190" width="40" height="14" rx="7" transform="rotate(10 220 197)"/>
    <rect x="320" y="210" width="42" height="14" rx="7" transform="rotate(-20 341 217)"/>
    <rect x="220" y="300" width="40" height="14" rx="7" transform="rotate(22 240 307)"/>
  </g>
</svg>
