<svg xmlns="http://www.w3.org/2000/svg" viewBox="0 0 480 560" width="480" height="560" role="img" aria-label="Portrait of William Mortensen, founder and owner of Mortensen AgriSupply">
  <defs>
    <linearGradient id="bg" x1="0" y1="0" x2="0" y2="1">
      <stop offset="0" stop-color="#1f3d24"/>
      <stop offset="1" stop-color="#14532d"/>
    </linearGradient>
  </defs>
  <rect width="480" height="560" fill="url(#bg)"/>
  <circle cx="240" cy="210" r="120" fill="#16653422"/>
  <!-- shoulders -->
  <path d="M90 560c0-95 67-150 150-150s150 55 150 150Z" fill="#475569"/>
  <path d="M150 470c0 40 40 60 90 60s90-20 90-60l-10-40H160Z" fill="#5b6b7d"/>
  <!-- collar / shirt -->
  <path d="M205 430l35 40 35-40 25 15-20 60h-80l-20-60Z" fill="#e2e8f0"/>
  <!-- neck -->
  <rect x="215" y="300" width="50" height="70" rx="20" fill="#e8b894"/>
  <!-- head -->
  <circle cx="240" cy="245" r="78" fill="#f0c39e"/>
  <!-- hair -->
  <path d="M162 235c0-55 36-92 78-92s78 37 78 92c-12-28-30-40-30-40-10 16-44 22-78 14-14-3-30 4-48 26Z" fill="#8a7b63"/>
  <!-- face features -->
  <g fill="#5b4a36">
    <circle cx="212" cy="240" r="6"/>
    <circle cx="268" cy="240" r="6"/>
  </g>
  <path d="M222 230c-8-4-18-3-22 2" stroke="#7a6a52" stroke-width="4" fill="none" stroke-linecap="round"/>
  <path d="M258 230c8-4 18-3 22 2" stroke="#7a6a52" stroke-width="4" fill="none" stroke-linecap="round"/>
  <path d="M232 258c5 6 11 6 16 0" stroke="#c98f63" stroke-width="4" fill="none" stroke-linecap="round"/>
  <path d="M222 285c12 9 24 9 36 0" stroke="#a9663f" stroke-width="5" fill="none" stroke-linecap="round"/>
</svg>
